<mxfile host="app.diagrams.net" modified="2022-10-10T17:10:46.367Z" agent="5.0 (X11; Linux x86_64) AppleWebKit/537.36 (KHTML, like Gecko) Chrome/106.0.0.0 Safari/537.36" etag="4D48Ys5lmgbRTpLM85wV" version="20.4.0" type="github">
  <diagram id="ojP_qYDtJdfT6L6pawBh" name="Page-1">
    <mxGraphModel dx="1106" dy="2020" grid="1" gridSize="10" guides="1" tooltips="1" connect="1" arrows="1" fold="1" page="1" pageScale="1" pageWidth="827" pageHeight="1169" math="0" shadow="0">
      <root>
        <mxCell id="0" />
        <mxCell id="1" parent="0" />
        <mxCell id="xr-ssWDF8DEgIkbZszsZ-43" value="Kubernetes" style="rounded=0;whiteSpace=wrap;html=1;strokeColor=#000000;dashed=1;verticalAlign=top;" parent="1" vertex="1">
          <mxGeometry x="540" y="20" width="280" height="490" as="geometry" />
        </mxCell>
        <mxCell id="xr-ssWDF8DEgIkbZszsZ-61" value="" style="rounded=0;whiteSpace=wrap;html=1;dashed=1;strokeColor=#000000;" parent="1" vertex="1">
          <mxGeometry x="550" y="327" width="250" height="50" as="geometry" />
        </mxCell>
        <mxCell id="xr-ssWDF8DEgIkbZszsZ-29" value="" style="group" parent="1" vertex="1" connectable="0">
          <mxGeometry x="1010" y="120" width="120" height="170" as="geometry" />
        </mxCell>
        <mxCell id="xr-ssWDF8DEgIkbZszsZ-27" value="Redis cluster" style="rounded=0;whiteSpace=wrap;html=1;dashed=1;strokeColor=#000000;verticalAlign=top;" parent="xr-ssWDF8DEgIkbZszsZ-29" vertex="1">
          <mxGeometry width="120" height="170" as="geometry" />
        </mxCell>
        <mxCell id="xr-ssWDF8DEgIkbZszsZ-19" value="" style="html=1;whiteSpace=wrap;shape=isoCube2;backgroundOutline=1;isoAngle=15;fillColor=#f8cecc;strokeColor=#b85450;gradientColor=#ea6b66;" parent="xr-ssWDF8DEgIkbZszsZ-29" vertex="1">
          <mxGeometry x="20" y="102" width="80" height="50" as="geometry" />
        </mxCell>
        <mxCell id="xr-ssWDF8DEgIkbZszsZ-21" value="" style="html=1;whiteSpace=wrap;shape=isoCube2;backgroundOutline=1;isoAngle=15;fillColor=#f8cecc;strokeColor=#b85450;dashed=1;gradientColor=#ea6b66;" parent="xr-ssWDF8DEgIkbZszsZ-29" vertex="1">
          <mxGeometry x="30" y="88" width="60" height="40" as="geometry" />
        </mxCell>
        <mxCell id="xr-ssWDF8DEgIkbZszsZ-18" value="" style="html=1;whiteSpace=wrap;shape=isoCube2;backgroundOutline=1;isoAngle=15;fillColor=#f8cecc;strokeColor=#b85450;gradientColor=#ea6b66;" parent="xr-ssWDF8DEgIkbZszsZ-29" vertex="1">
          <mxGeometry x="20" y="60" width="80" height="50" as="geometry" />
        </mxCell>
        <mxCell id="xr-ssWDF8DEgIkbZszsZ-17" value="" style="html=1;whiteSpace=wrap;shape=isoCube2;backgroundOutline=1;isoAngle=15;fillColor=#f8cecc;strokeColor=#b85450;gradientColor=#ea6b66;" parent="xr-ssWDF8DEgIkbZszsZ-29" vertex="1">
          <mxGeometry x="20" y="30" width="80" height="50" as="geometry" />
        </mxCell>
        <mxCell id="xr-ssWDF8DEgIkbZszsZ-30" value="" style="group;rotation=0;" parent="1" vertex="1" connectable="0">
          <mxGeometry x="230" y="250" width="250" height="215" as="geometry" />
        </mxCell>
        <mxCell id="xr-ssWDF8DEgIkbZszsZ-28" value="MQ cluster (Rabbit MQ)" style="rounded=0;whiteSpace=wrap;html=1;dashed=1;strokeColor=#000000;verticalAlign=top;rotation=0;" parent="xr-ssWDF8DEgIkbZszsZ-30" vertex="1">
          <mxGeometry x="-10" width="260" height="215" as="geometry" />
        </mxCell>
        <mxCell id="xr-ssWDF8DEgIkbZszsZ-1" value="MQ 1" style="shape=cylinder3;whiteSpace=wrap;html=1;boundedLbl=1;backgroundOutline=1;size=15;rotation=-90;" parent="xr-ssWDF8DEgIkbZszsZ-30" vertex="1">
          <mxGeometry x="160" y="13.16326530612245" width="40" height="70.20408163265306" as="geometry" />
        </mxCell>
        <mxCell id="xr-ssWDF8DEgIkbZszsZ-2" value="MQ 2" style="shape=cylinder3;whiteSpace=wrap;html=1;boundedLbl=1;backgroundOutline=1;size=15;rotation=-90;" parent="xr-ssWDF8DEgIkbZszsZ-30" vertex="1">
          <mxGeometry x="160" y="65.81632653061224" width="40" height="70.20408163265306" as="geometry" />
        </mxCell>
        <mxCell id="xr-ssWDF8DEgIkbZszsZ-3" value="MQ N" style="shape=cylinder3;whiteSpace=wrap;html=1;boundedLbl=1;backgroundOutline=1;size=15;rotation=-90;" parent="xr-ssWDF8DEgIkbZszsZ-30" vertex="1">
          <mxGeometry x="160" y="144.79591836734693" width="40" height="70.20408163265306" as="geometry" />
        </mxCell>
        <mxCell id="xr-ssWDF8DEgIkbZszsZ-4" value="Балансер" style="shape=cylinder3;whiteSpace=wrap;html=1;boundedLbl=1;backgroundOutline=1;size=15;rotation=-90;" parent="xr-ssWDF8DEgIkbZszsZ-30" vertex="1">
          <mxGeometry x="-5" y="78.9795918367347" width="90" height="70.20408163265306" as="geometry" />
        </mxCell>
        <mxCell id="xr-ssWDF8DEgIkbZszsZ-5" value="" style="endArrow=none;dashed=1;html=1;dashPattern=1 3;strokeWidth=2;rounded=0;" parent="xr-ssWDF8DEgIkbZszsZ-30" edge="1">
          <mxGeometry width="50" height="50" relative="1" as="geometry">
            <mxPoint x="200" y="144.79591836734693" as="sourcePoint" />
            <mxPoint x="160" y="144.79591836734693" as="targetPoint" />
          </mxGeometry>
        </mxCell>
        <mxCell id="xr-ssWDF8DEgIkbZszsZ-6" value="" style="curved=1;endArrow=classic;html=1;rounded=0;exitX=0.5;exitY=1;exitDx=0;exitDy=0;exitPerimeter=0;entryX=0.5;entryY=0;entryDx=0;entryDy=0;entryPerimeter=0;" parent="xr-ssWDF8DEgIkbZszsZ-30" source="xr-ssWDF8DEgIkbZszsZ-4" target="xr-ssWDF8DEgIkbZszsZ-1" edge="1">
          <mxGeometry width="50" height="50" relative="1" as="geometry">
            <mxPoint x="180" y="337.85714285714283" as="sourcePoint" />
            <mxPoint x="230" y="293.9795918367347" as="targetPoint" />
            <Array as="points">
              <mxPoint x="100" y="48.265306122448976" />
            </Array>
          </mxGeometry>
        </mxCell>
        <mxCell id="xr-ssWDF8DEgIkbZszsZ-7" value="" style="curved=1;endArrow=classic;html=1;rounded=0;exitX=0.5;exitY=1;exitDx=0;exitDy=0;exitPerimeter=0;entryX=0.5;entryY=0;entryDx=0;entryDy=0;entryPerimeter=0;" parent="xr-ssWDF8DEgIkbZszsZ-30" source="xr-ssWDF8DEgIkbZszsZ-4" target="xr-ssWDF8DEgIkbZszsZ-3" edge="1">
          <mxGeometry width="50" height="50" relative="1" as="geometry">
            <mxPoint x="90" y="118.46938775510203" as="sourcePoint" />
            <mxPoint x="150" y="57.04081632653061" as="targetPoint" />
            <Array as="points">
              <mxPoint x="90" y="171.12244897959184" />
            </Array>
          </mxGeometry>
        </mxCell>
        <mxCell id="xr-ssWDF8DEgIkbZszsZ-8" value="" style="curved=1;endArrow=classic;html=1;rounded=0;exitX=0.5;exitY=1;exitDx=0;exitDy=0;exitPerimeter=0;entryX=0.5;entryY=0;entryDx=0;entryDy=0;entryPerimeter=0;" parent="xr-ssWDF8DEgIkbZszsZ-30" source="xr-ssWDF8DEgIkbZszsZ-4" target="xr-ssWDF8DEgIkbZszsZ-2" edge="1">
          <mxGeometry width="50" height="50" relative="1" as="geometry">
            <mxPoint x="90" y="118.46938775510203" as="sourcePoint" />
            <mxPoint x="150" y="188.6734693877551" as="targetPoint" />
            <Array as="points">
              <mxPoint x="100" y="100.91836734693877" />
            </Array>
          </mxGeometry>
        </mxCell>
        <mxCell id="xr-ssWDF8DEgIkbZszsZ-31" value="Proxy / Proxies + balancer" style="shape=step;perimeter=stepPerimeter;whiteSpace=wrap;html=1;fixedSize=1;strokeColor=#000000;" parent="1" vertex="1">
          <mxGeometry x="560" y="50" width="240" height="40" as="geometry" />
        </mxCell>
        <mxCell id="xr-ssWDF8DEgIkbZszsZ-45" value="" style="curved=1;endArrow=classic;html=1;rounded=0;exitX=0.997;exitY=0.815;exitDx=0;exitDy=0;exitPerimeter=0;entryX=0.5;entryY=1;entryDx=0;entryDy=0;fillColor=#e6d0de;gradientColor=#d5739d;strokeColor=#996185;" parent="1" source="xr-ssWDF8DEgIkbZszsZ-28" target="xr-ssWDF8DEgIkbZszsZ-33" edge="1">
          <mxGeometry width="50" height="50" relative="1" as="geometry">
            <mxPoint x="430" y="400" as="sourcePoint" />
            <mxPoint x="480" y="350" as="targetPoint" />
            <Array as="points">
              <mxPoint x="520" y="400" />
              <mxPoint x="570" y="390" />
            </Array>
          </mxGeometry>
        </mxCell>
        <mxCell id="xr-ssWDF8DEgIkbZszsZ-107" value="7" style="edgeLabel;html=1;align=center;verticalAlign=middle;resizable=0;points=[];" parent="xr-ssWDF8DEgIkbZszsZ-45" vertex="1" connectable="0">
          <mxGeometry x="-0.4362" relative="1" as="geometry">
            <mxPoint as="offset" />
          </mxGeometry>
        </mxCell>
        <mxCell id="xr-ssWDF8DEgIkbZszsZ-48" value="Оборудование / данные / состояние" style="verticalLabelPosition=bottom;verticalAlign=top;html=1;shape=stencil(tVdNc4IwEP01XDv5wI8eO9Te2ulMDz1HjDVjTJhAtf33DQSmohAxC44zurvk7Xsv4MaIJvmOZTwiSLEDj+hzRMg7M0xKLm3yVW9sjdhvO1eLkQtPLsQ0djHLM54WLnlkRrC1rBfmhdF7fhKbooYQaseNKMoqXUXoyV5TvmmSaqUsiNAqb1XO6haMCWXXoh8Hhh5mrs1vHbsosx0OvOCmlf2X+OYSEXkJ7oSHdfoI6NRW1PS91enz/k44rNMKrGngLgVIQkGbBPduoKIA63CQop5GNLGZvgeNJmuW7r+M/labTno5O3IP+62QMtVSGxu6z4pLROjWvhDya89Y+QtxVWjKB131rk2JF21XZj7sBkIKdQYxIy0I4qXXDXHBggSwiEdnMcyLVOq8fy+7TSdw0ylcLoGbTkZnMZ3pc7jpC7jcOdz0+egspjN9CTf9ES53CTd9OTqL6UzHCO46xnDBlzxCfMdofB5jOF/N/6tJW2V7Zr8d69pwz6GgnPrukO/panheWBjPFXeNf9R1+Lrr6YyHI3R71tRuSgcIi+HK/BCB0qplV7dFlXV/J6vEHw==);pointerEvents=1;dashed=1;strokeColor=#000000;" parent="1" vertex="1">
          <mxGeometry x="260" y="20" width="160" height="40" as="geometry" />
        </mxCell>
        <mxCell id="xr-ssWDF8DEgIkbZszsZ-49" value="" style="curved=1;endArrow=classic;html=1;rounded=0;" parent="1" edge="1">
          <mxGeometry width="50" height="50" relative="1" as="geometry">
            <mxPoint x="408" y="40" as="sourcePoint" />
            <mxPoint x="563" y="69" as="targetPoint" />
            <Array as="points">
              <mxPoint x="470" y="50" />
            </Array>
          </mxGeometry>
        </mxCell>
        <mxCell id="xr-ssWDF8DEgIkbZszsZ-101" value="1" style="edgeLabel;html=1;align=center;verticalAlign=middle;resizable=0;points=[];" parent="xr-ssWDF8DEgIkbZszsZ-49" vertex="1" connectable="0">
          <mxGeometry x="0.0261" y="-1" relative="1" as="geometry">
            <mxPoint as="offset" />
          </mxGeometry>
        </mxCell>
        <mxCell id="xr-ssWDF8DEgIkbZszsZ-50" value="" style="curved=1;endArrow=classic;html=1;rounded=0;" parent="1" edge="1">
          <mxGeometry width="50" height="50" relative="1" as="geometry">
            <mxPoint x="806" y="71" as="sourcePoint" />
            <mxPoint x="220" y="360" as="targetPoint" />
            <Array as="points">
              <mxPoint x="880" y="90" />
              <mxPoint x="770" y="110" />
              <mxPoint x="320" y="120" />
              <mxPoint x="160" y="310" />
            </Array>
          </mxGeometry>
        </mxCell>
        <mxCell id="xr-ssWDF8DEgIkbZszsZ-97" value="1. Данные от оборудования &lt;br&gt;без возможности прямой записи" style="edgeLabel;html=1;align=center;verticalAlign=middle;resizable=0;points=[];" parent="xr-ssWDF8DEgIkbZszsZ-50" vertex="1" connectable="0">
          <mxGeometry x="0.2331" y="22" relative="1" as="geometry">
            <mxPoint x="37" as="offset" />
          </mxGeometry>
        </mxCell>
        <mxCell id="xr-ssWDF8DEgIkbZszsZ-56" value="" style="group" parent="1" vertex="1" connectable="0">
          <mxGeometry x="480" y="630" width="300" height="110" as="geometry" />
        </mxCell>
        <mxCell id="xr-ssWDF8DEgIkbZszsZ-55" value="Специалисты" style="rounded=0;whiteSpace=wrap;html=1;dashed=1;strokeColor=#000000;verticalAlign=top;" parent="xr-ssWDF8DEgIkbZszsZ-56" vertex="1">
          <mxGeometry width="300" height="110" as="geometry" />
        </mxCell>
        <mxCell id="xr-ssWDF8DEgIkbZszsZ-32" value="&lt;br&gt;&lt;br&gt;&lt;br&gt;Инженер" style="shape=actor;whiteSpace=wrap;html=1;strokeColor=#000000;verticalAlign=top;" parent="xr-ssWDF8DEgIkbZszsZ-56" vertex="1">
          <mxGeometry x="150" y="34" width="40" height="50" as="geometry" />
        </mxCell>
        <mxCell id="xr-ssWDF8DEgIkbZszsZ-52" value="&lt;br&gt;&lt;br&gt;&lt;br&gt;Технолог" style="shape=actor;whiteSpace=wrap;html=1;strokeColor=#000000;verticalAlign=top;" parent="xr-ssWDF8DEgIkbZszsZ-56" vertex="1">
          <mxGeometry x="230" y="34" width="40" height="50" as="geometry" />
        </mxCell>
        <mxCell id="xr-ssWDF8DEgIkbZszsZ-53" value="&lt;br&gt;&lt;br&gt;&lt;br&gt;Оператор" style="shape=actor;whiteSpace=wrap;html=1;strokeColor=#000000;verticalAlign=top;" parent="xr-ssWDF8DEgIkbZszsZ-56" vertex="1">
          <mxGeometry x="20" y="34" width="40" height="50" as="geometry" />
        </mxCell>
        <mxCell id="xr-ssWDF8DEgIkbZszsZ-54" value="" style="endArrow=none;dashed=1;html=1;dashPattern=1 3;strokeWidth=2;rounded=0;" parent="xr-ssWDF8DEgIkbZszsZ-56" edge="1">
          <mxGeometry width="50" height="50" relative="1" as="geometry">
            <mxPoint x="120" y="94.34000000000003" as="sourcePoint" />
            <mxPoint x="90" y="94" as="targetPoint" />
          </mxGeometry>
        </mxCell>
        <mxCell id="xr-ssWDF8DEgIkbZszsZ-57" value="" style="curved=1;endArrow=classic;html=1;rounded=0;exitX=0.5;exitY=0;exitDx=0;exitDy=0;entryX=0;entryY=0.5;entryDx=0;entryDy=0;" parent="1" source="xr-ssWDF8DEgIkbZszsZ-55" target="xr-ssWDF8DEgIkbZszsZ-36" edge="1">
          <mxGeometry width="50" height="50" relative="1" as="geometry">
            <mxPoint x="520" y="460" as="sourcePoint" />
            <mxPoint x="570" y="410" as="targetPoint" />
            <Array as="points">
              <mxPoint x="555" y="610" />
              <mxPoint x="500" y="490" />
            </Array>
          </mxGeometry>
        </mxCell>
        <mxCell id="xr-ssWDF8DEgIkbZszsZ-89" value="i. Кабинет" style="edgeLabel;html=1;align=center;verticalAlign=middle;resizable=0;points=[];" parent="xr-ssWDF8DEgIkbZszsZ-57" vertex="1" connectable="0">
          <mxGeometry x="-0.2375" y="4" relative="1" as="geometry">
            <mxPoint as="offset" />
          </mxGeometry>
        </mxCell>
        <mxCell id="xr-ssWDF8DEgIkbZszsZ-33" value="" style="shape=message;html=1;whiteSpace=wrap;html=1;outlineConnect=0;strokeColor=#000000;" parent="1" vertex="1">
          <mxGeometry x="569" y="337.5" width="60" height="30" as="geometry" />
        </mxCell>
        <mxCell id="xr-ssWDF8DEgIkbZszsZ-36" value="Nginx" style="label;whiteSpace=wrap;html=1;image=img/clipart/Gear_64x64.png;dashed=1;strokeColor=#000000;" parent="1" vertex="1">
          <mxGeometry x="555" y="457.5" width="245" height="40" as="geometry" />
        </mxCell>
        <mxCell id="xr-ssWDF8DEgIkbZszsZ-37" value="Предсказания" style="verticalLabelPosition=middle;verticalAlign=middle;html=1;shape=process;whiteSpace=wrap;rounded=1;size=0.09090909090909091;arcSize=6;strokeColor=#000000;labelPosition=center;align=center;" parent="1" vertex="1">
          <mxGeometry x="555" y="147.5" width="115" height="40" as="geometry" />
        </mxCell>
        <mxCell id="xr-ssWDF8DEgIkbZszsZ-39" value="Формирование нотификаций" style="verticalLabelPosition=middle;verticalAlign=middle;html=1;shape=process;whiteSpace=wrap;rounded=1;size=0.09090909090909091;arcSize=6;strokeColor=#000000;labelPosition=center;align=center;" parent="1" vertex="1">
          <mxGeometry x="555" y="277.5" width="245" height="40" as="geometry" />
        </mxCell>
        <mxCell id="xr-ssWDF8DEgIkbZszsZ-40" value="" style="endArrow=none;dashed=1;html=1;dashPattern=1 3;strokeWidth=2;rounded=0;" parent="1" edge="1">
          <mxGeometry width="50" height="50" relative="1" as="geometry">
            <mxPoint x="737.75" y="240" as="sourcePoint" />
            <mxPoint x="634.25" y="240" as="targetPoint" />
          </mxGeometry>
        </mxCell>
        <mxCell id="xr-ssWDF8DEgIkbZszsZ-41" value="" style="whiteSpace=wrap;html=1;shape=mxgraph.basic.loud_callout;strokeColor=#000000;" parent="1" vertex="1">
          <mxGeometry x="661" y="337.5" width="50" height="30" as="geometry" />
        </mxCell>
        <mxCell id="xr-ssWDF8DEgIkbZszsZ-42" value="" style="endArrow=none;dashed=1;html=1;dashPattern=1 3;strokeWidth=2;rounded=0;" parent="1" edge="1">
          <mxGeometry width="50" height="50" relative="1" as="geometry">
            <mxPoint x="766" y="352.29999999999995" as="sourcePoint" />
            <mxPoint x="739" y="352.29999999999995" as="targetPoint" />
          </mxGeometry>
        </mxCell>
        <mxCell id="xr-ssWDF8DEgIkbZszsZ-63" value="Предсказания" style="verticalLabelPosition=middle;verticalAlign=middle;html=1;shape=process;whiteSpace=wrap;rounded=1;size=0.09090909090909091;arcSize=6;strokeColor=#000000;labelPosition=center;align=center;" parent="1" vertex="1">
          <mxGeometry x="690" y="147.5" width="115" height="40" as="geometry" />
        </mxCell>
        <mxCell id="xr-ssWDF8DEgIkbZszsZ-65" value="" style="curved=1;endArrow=classic;html=1;rounded=0;entryX=1;entryY=0.5;entryDx=0;entryDy=0;exitX=0.5;exitY=1;exitDx=0;exitDy=0;strokeColor=#660066;startArrow=classic;startFill=1;" parent="1" source="xr-ssWDF8DEgIkbZszsZ-37" target="xr-ssWDF8DEgIkbZszsZ-63" edge="1">
          <mxGeometry width="50" height="50" relative="1" as="geometry">
            <mxPoint x="757.5" y="197.5" as="sourcePoint" />
            <mxPoint x="1020" y="172.5" as="targetPoint" />
            <Array as="points">
              <mxPoint x="780" y="230" />
              <mxPoint x="1140" y="180" />
            </Array>
          </mxGeometry>
        </mxCell>
        <mxCell id="xr-ssWDF8DEgIkbZszsZ-67" value="3. Синхронизация | Компановка оценки" style="edgeLabel;html=1;align=center;verticalAlign=middle;resizable=0;points=[];" parent="xr-ssWDF8DEgIkbZszsZ-65" vertex="1" connectable="0">
          <mxGeometry x="0.4035" y="5" relative="1" as="geometry">
            <mxPoint x="-221" y="17" as="offset" />
          </mxGeometry>
        </mxCell>
        <mxCell id="xr-ssWDF8DEgIkbZszsZ-68" value="" style="curved=1;endArrow=classic;html=1;rounded=0;exitX=0.884;exitY=0.005;exitDx=0;exitDy=0;entryX=0;entryY=0.5;entryDx=0;entryDy=0;exitPerimeter=0;" parent="1" source="xr-ssWDF8DEgIkbZszsZ-28" target="xr-ssWDF8DEgIkbZszsZ-37" edge="1">
          <mxGeometry width="50" height="50" relative="1" as="geometry">
            <mxPoint x="520" y="460" as="sourcePoint" />
            <mxPoint x="570" y="410" as="targetPoint" />
            <Array as="points">
              <mxPoint x="480" y="220" />
              <mxPoint x="530" y="180" />
            </Array>
          </mxGeometry>
        </mxCell>
        <mxCell id="xr-ssWDF8DEgIkbZszsZ-71" value="2. Задачи" style="edgeLabel;html=1;align=center;verticalAlign=middle;resizable=0;points=[];" parent="xr-ssWDF8DEgIkbZszsZ-68" vertex="1" connectable="0">
          <mxGeometry x="-0.6715" y="14" relative="1" as="geometry">
            <mxPoint x="49" y="-26" as="offset" />
          </mxGeometry>
        </mxCell>
        <mxCell id="xr-ssWDF8DEgIkbZszsZ-69" value="" style="curved=1;endArrow=classic;html=1;rounded=0;exitX=0.695;exitY=0.009;exitDx=0;exitDy=0;entryX=0.5;entryY=0;entryDx=0;entryDy=0;exitPerimeter=0;" parent="1" source="xr-ssWDF8DEgIkbZszsZ-28" target="xr-ssWDF8DEgIkbZszsZ-63" edge="1">
          <mxGeometry width="50" height="50" relative="1" as="geometry">
            <mxPoint x="490" y="313.75" as="sourcePoint" />
            <mxPoint x="593.75" y="157.5" as="targetPoint" />
            <Array as="points">
              <mxPoint x="490" y="160" />
              <mxPoint x="600" y="120" />
            </Array>
          </mxGeometry>
        </mxCell>
        <mxCell id="xr-ssWDF8DEgIkbZszsZ-70" value="2. Задачи" style="edgeLabel;html=1;align=center;verticalAlign=middle;resizable=0;points=[];" parent="xr-ssWDF8DEgIkbZszsZ-69" vertex="1" connectable="0">
          <mxGeometry x="0.3916" y="-6" relative="1" as="geometry">
            <mxPoint as="offset" />
          </mxGeometry>
        </mxCell>
        <mxCell id="xr-ssWDF8DEgIkbZszsZ-72" value="Web-интерфейс" style="rounded=0;whiteSpace=wrap;html=1;dashed=1;strokeColor=#000000;" parent="1" vertex="1">
          <mxGeometry x="650" y="465" width="140" height="25" as="geometry" />
        </mxCell>
        <mxCell id="xr-ssWDF8DEgIkbZszsZ-73" value="" style="curved=1;endArrow=classic;html=1;rounded=0;exitX=0;exitY=0.75;exitDx=0;exitDy=0;entryX=1;entryY=0.5;entryDx=0;entryDy=0;strokeColor=#009900;" parent="1" source="xr-ssWDF8DEgIkbZszsZ-27" target="xr-ssWDF8DEgIkbZszsZ-39" edge="1">
          <mxGeometry width="50" height="50" relative="1" as="geometry">
            <mxPoint x="520" y="460" as="sourcePoint" />
            <mxPoint x="570" y="410" as="targetPoint" />
            <Array as="points">
              <mxPoint x="980" y="300" />
            </Array>
          </mxGeometry>
        </mxCell>
        <mxCell id="xr-ssWDF8DEgIkbZszsZ-74" value="iv.&amp;nbsp;Конфигурация" style="edgeLabel;html=1;align=center;verticalAlign=middle;resizable=0;points=[];" parent="xr-ssWDF8DEgIkbZszsZ-73" vertex="1" connectable="0">
          <mxGeometry x="0.064" y="-8" relative="1" as="geometry">
            <mxPoint as="offset" />
          </mxGeometry>
        </mxCell>
        <mxCell id="xr-ssWDF8DEgIkbZszsZ-75" value="" style="curved=1;endArrow=classic;html=1;rounded=0;exitX=-0.003;exitY=0.643;exitDx=0;exitDy=0;entryX=0.25;entryY=1;entryDx=0;entryDy=0;exitPerimeter=0;strokeColor=#009900;" parent="1" source="xr-ssWDF8DEgIkbZszsZ-27" target="xr-ssWDF8DEgIkbZszsZ-37" edge="1">
          <mxGeometry width="50" height="50" relative="1" as="geometry">
            <mxPoint x="1020" y="257.5" as="sourcePoint" />
            <mxPoint x="810" y="307.5" as="targetPoint" />
            <Array as="points">
              <mxPoint x="680" y="280" />
            </Array>
          </mxGeometry>
        </mxCell>
        <mxCell id="xr-ssWDF8DEgIkbZszsZ-77" value="iv.&amp;nbsp;Конфигурация" style="edgeLabel;html=1;align=center;verticalAlign=middle;resizable=0;points=[];" parent="xr-ssWDF8DEgIkbZszsZ-75" vertex="1" connectable="0">
          <mxGeometry x="-0.6332" y="-4" relative="1" as="geometry">
            <mxPoint as="offset" />
          </mxGeometry>
        </mxCell>
        <mxCell id="xr-ssWDF8DEgIkbZszsZ-78" value="" style="curved=1;endArrow=classic;html=1;rounded=0;exitX=0.004;exitY=0.101;exitDx=0;exitDy=0;entryX=0.75;entryY=0;entryDx=0;entryDy=0;exitPerimeter=0;strokeColor=#009900;" parent="1" source="xr-ssWDF8DEgIkbZszsZ-27" target="xr-ssWDF8DEgIkbZszsZ-63" edge="1">
          <mxGeometry width="50" height="50" relative="1" as="geometry">
            <mxPoint x="1019.6399999999999" y="239.30999999999995" as="sourcePoint" />
            <mxPoint x="593.75" y="197.5" as="targetPoint" />
            <Array as="points">
              <mxPoint x="810" y="70" />
            </Array>
          </mxGeometry>
        </mxCell>
        <mxCell id="xr-ssWDF8DEgIkbZszsZ-79" value="iv.&amp;nbsp;Конфигурация" style="edgeLabel;html=1;align=center;verticalAlign=middle;resizable=0;points=[];" parent="xr-ssWDF8DEgIkbZszsZ-78" vertex="1" connectable="0">
          <mxGeometry x="-0.6332" y="-4" relative="1" as="geometry">
            <mxPoint x="-50" y="-6" as="offset" />
          </mxGeometry>
        </mxCell>
        <mxCell id="xr-ssWDF8DEgIkbZszsZ-80" value="" style="curved=1;endArrow=classic;html=1;rounded=0;exitX=0.25;exitY=1;exitDx=0;exitDy=0;entryX=1;entryY=0.5;entryDx=0;entryDy=0;strokeColor=#009900;" parent="1" source="xr-ssWDF8DEgIkbZszsZ-27" target="xr-ssWDF8DEgIkbZszsZ-61" edge="1">
          <mxGeometry width="50" height="50" relative="1" as="geometry">
            <mxPoint x="1020" y="257.5" as="sourcePoint" />
            <mxPoint x="810" y="307.5" as="targetPoint" />
            <Array as="points">
              <mxPoint x="950" y="350" />
            </Array>
          </mxGeometry>
        </mxCell>
        <mxCell id="xr-ssWDF8DEgIkbZszsZ-81" value="iv. Конфигурация" style="edgeLabel;html=1;align=center;verticalAlign=middle;resizable=0;points=[];" parent="xr-ssWDF8DEgIkbZszsZ-80" vertex="1" connectable="0">
          <mxGeometry x="0.064" y="-8" relative="1" as="geometry">
            <mxPoint as="offset" />
          </mxGeometry>
        </mxCell>
        <mxCell id="xr-ssWDF8DEgIkbZszsZ-83" value="" style="curved=1;endArrow=classic;html=1;rounded=0;strokeColor=#990000;entryX=1;entryY=0.5;entryDx=0;entryDy=0;exitX=0;exitY=0.5;exitDx=0;exitDy=0;" parent="1" source="xr-ssWDF8DEgIkbZszsZ-39" target="xr-ssWDF8DEgIkbZszsZ-28" edge="1">
          <mxGeometry width="50" height="50" relative="1" as="geometry">
            <mxPoint x="520" y="460" as="sourcePoint" />
            <mxPoint x="570" y="410" as="targetPoint" />
            <Array as="points">
              <mxPoint x="540" y="320" />
              <mxPoint x="520" y="340" />
            </Array>
          </mxGeometry>
        </mxCell>
        <mxCell id="xr-ssWDF8DEgIkbZszsZ-106" value="6" style="edgeLabel;html=1;align=center;verticalAlign=middle;resizable=0;points=[];" parent="xr-ssWDF8DEgIkbZszsZ-83" vertex="1" connectable="0">
          <mxGeometry x="-0.033" y="-1" relative="1" as="geometry">
            <mxPoint as="offset" />
          </mxGeometry>
        </mxCell>
        <mxCell id="xr-ssWDF8DEgIkbZszsZ-85" value="API backend / админка / пользователи" style="rounded=0;whiteSpace=wrap;html=1;dashed=1;strokeColor=#000000;" parent="1" vertex="1">
          <mxGeometry x="555" y="400" width="245" height="40" as="geometry" />
        </mxCell>
        <mxCell id="xr-ssWDF8DEgIkbZszsZ-46" value="" style="curved=1;endArrow=classic;html=1;rounded=0;exitX=1.02;exitY=0.882;exitDx=0;exitDy=0;exitPerimeter=0;entryX=0.04;entryY=1;entryDx=0;entryDy=0;fillColor=#e6d0de;gradientColor=#d5739d;strokeColor=#996185;entryPerimeter=0;" parent="1" source="xr-ssWDF8DEgIkbZszsZ-28" target="xr-ssWDF8DEgIkbZszsZ-41" edge="1">
          <mxGeometry width="50" height="50" relative="1" as="geometry">
            <mxPoint x="489.5799999999999" y="435.2249999999999" as="sourcePoint" />
            <mxPoint x="595" y="377.5" as="targetPoint" />
            <Array as="points">
              <mxPoint x="530" y="410" />
              <mxPoint x="620" y="410" />
            </Array>
          </mxGeometry>
        </mxCell>
        <mxCell id="xr-ssWDF8DEgIkbZszsZ-108" value="7" style="edgeLabel;html=1;align=center;verticalAlign=middle;resizable=0;points=[];" parent="xr-ssWDF8DEgIkbZszsZ-46" vertex="1" connectable="0">
          <mxGeometry x="-0.6372" y="-5" relative="1" as="geometry">
            <mxPoint as="offset" />
          </mxGeometry>
        </mxCell>
        <mxCell id="xr-ssWDF8DEgIkbZszsZ-59" value="" style="curved=1;endArrow=classic;html=1;rounded=0;exitX=1;exitY=0.75;exitDx=0;exitDy=0;entryX=1;entryY=0.25;entryDx=0;entryDy=0;fillColor=#e6d0de;gradientColor=#d5739d;strokeColor=#996185;" parent="1" source="xr-ssWDF8DEgIkbZszsZ-61" target="xr-ssWDF8DEgIkbZszsZ-55" edge="1">
          <mxGeometry width="50" height="50" relative="1" as="geometry">
            <mxPoint x="489.5799999999999" y="435.22500000000014" as="sourcePoint" />
            <mxPoint x="595" y="377.5" as="targetPoint" />
            <Array as="points">
              <mxPoint x="890" y="410" />
              <mxPoint x="840" y="590" />
            </Array>
          </mxGeometry>
        </mxCell>
        <mxCell id="xr-ssWDF8DEgIkbZszsZ-88" value="Нотификации" style="edgeLabel;html=1;align=center;verticalAlign=middle;resizable=0;points=[];" parent="xr-ssWDF8DEgIkbZszsZ-59" vertex="1" connectable="0">
          <mxGeometry x="0.3075" y="-20" relative="1" as="geometry">
            <mxPoint as="offset" />
          </mxGeometry>
        </mxCell>
        <mxCell id="xr-ssWDF8DEgIkbZszsZ-109" value="8" style="edgeLabel;html=1;align=center;verticalAlign=middle;resizable=0;points=[];" parent="xr-ssWDF8DEgIkbZszsZ-59" vertex="1" connectable="0">
          <mxGeometry x="-0.1934" y="2" relative="1" as="geometry">
            <mxPoint as="offset" />
          </mxGeometry>
        </mxCell>
        <mxCell id="xr-ssWDF8DEgIkbZszsZ-87" value="" style="curved=1;endArrow=classic;html=1;rounded=0;strokeColor=#FF8000;exitX=1;exitY=0.5;exitDx=0;exitDy=0;entryX=1;entryY=0.75;entryDx=0;entryDy=0;" parent="1" source="xr-ssWDF8DEgIkbZszsZ-36" target="xr-ssWDF8DEgIkbZszsZ-85" edge="1">
          <mxGeometry width="50" height="50" relative="1" as="geometry">
            <mxPoint x="520" y="460" as="sourcePoint" />
            <mxPoint x="840" y="380" as="targetPoint" />
            <Array as="points">
              <mxPoint x="850" y="470" />
              <mxPoint x="830" y="440" />
            </Array>
          </mxGeometry>
        </mxCell>
        <mxCell id="xr-ssWDF8DEgIkbZszsZ-110" value="ii" style="edgeLabel;html=1;align=center;verticalAlign=middle;resizable=0;points=[];" parent="xr-ssWDF8DEgIkbZszsZ-87" vertex="1" connectable="0">
          <mxGeometry x="0.0145" y="4" relative="1" as="geometry">
            <mxPoint x="-2" y="-5" as="offset" />
          </mxGeometry>
        </mxCell>
        <mxCell id="xr-ssWDF8DEgIkbZszsZ-90" value="" style="curved=1;endArrow=classic;html=1;rounded=0;strokeColor=#FF8000;exitX=1;exitY=0.25;exitDx=0;exitDy=0;entryX=0.5;entryY=1;entryDx=0;entryDy=0;" parent="1" source="xr-ssWDF8DEgIkbZszsZ-85" target="xr-ssWDF8DEgIkbZszsZ-27" edge="1">
          <mxGeometry width="50" height="50" relative="1" as="geometry">
            <mxPoint x="810" y="487.5" as="sourcePoint" />
            <mxPoint x="810" y="440" as="targetPoint" />
            <Array as="points">
              <mxPoint x="900" y="410" />
              <mxPoint x="970" y="370" />
            </Array>
          </mxGeometry>
        </mxCell>
        <mxCell id="xr-ssWDF8DEgIkbZszsZ-91" value="iii. Изменение конфигурации" style="edgeLabel;html=1;align=center;verticalAlign=middle;resizable=0;points=[];" parent="xr-ssWDF8DEgIkbZszsZ-90" vertex="1" connectable="0">
          <mxGeometry x="0.0494" relative="1" as="geometry">
            <mxPoint as="offset" />
          </mxGeometry>
        </mxCell>
        <mxCell id="xr-ssWDF8DEgIkbZszsZ-93" value="" style="curved=1;endArrow=classic;html=1;rounded=0;strokeColor=#000000;" parent="1" edge="1">
          <mxGeometry width="50" height="50" relative="1" as="geometry">
            <mxPoint x="408" y="52" as="sourcePoint" />
            <mxPoint x="220" y="370" as="targetPoint" />
            <Array as="points">
              <mxPoint x="500" y="80" />
              <mxPoint x="290" y="120" />
              <mxPoint x="100" y="290" />
            </Array>
          </mxGeometry>
        </mxCell>
        <mxCell id="xr-ssWDF8DEgIkbZszsZ-95" value="1. Прямая запись" style="edgeLabel;html=1;align=center;verticalAlign=middle;resizable=0;points=[];" parent="xr-ssWDF8DEgIkbZszsZ-93" vertex="1" connectable="0">
          <mxGeometry x="-0.3852" y="-2" relative="1" as="geometry">
            <mxPoint x="-140" y="59" as="offset" />
          </mxGeometry>
        </mxCell>
        <mxCell id="xr-ssWDF8DEgIkbZszsZ-96" value="" style="curved=1;endArrow=classic;html=1;rounded=0;strokeColor=#990000;entryX=0;entryY=0.25;entryDx=0;entryDy=0;exitX=1.003;exitY=0.387;exitDx=0;exitDy=0;exitPerimeter=0;" parent="1" source="xr-ssWDF8DEgIkbZszsZ-28" target="xr-ssWDF8DEgIkbZszsZ-39" edge="1">
          <mxGeometry width="50" height="50" relative="1" as="geometry">
            <mxPoint x="565" y="307.5" as="sourcePoint" />
            <mxPoint x="560" y="362" as="targetPoint" />
            <Array as="points">
              <mxPoint x="520" y="290" />
            </Array>
          </mxGeometry>
        </mxCell>
        <mxCell id="xr-ssWDF8DEgIkbZszsZ-105" value="5" style="edgeLabel;html=1;align=center;verticalAlign=middle;resizable=0;points=[];" parent="xr-ssWDF8DEgIkbZszsZ-96" vertex="1" connectable="0">
          <mxGeometry x="-0.0961" y="-2" relative="1" as="geometry">
            <mxPoint x="1" as="offset" />
          </mxGeometry>
        </mxCell>
        <mxCell id="xr-ssWDF8DEgIkbZszsZ-99" value="" style="curved=1;endArrow=classic;html=1;rounded=0;strokeColor=#990000;entryX=1.021;entryY=0.114;entryDx=0;entryDy=0;exitX=0.106;exitY=0.964;exitDx=0;exitDy=0;exitPerimeter=0;entryPerimeter=0;" parent="1" source="xr-ssWDF8DEgIkbZszsZ-37" target="xr-ssWDF8DEgIkbZszsZ-28" edge="1">
          <mxGeometry width="50" height="50" relative="1" as="geometry">
            <mxPoint x="490.78" y="343.2049999999999" as="sourcePoint" />
            <mxPoint x="565" y="297.5" as="targetPoint" />
            <Array as="points">
              <mxPoint x="540" y="260" />
            </Array>
          </mxGeometry>
        </mxCell>
        <mxCell id="xr-ssWDF8DEgIkbZszsZ-102" value="4" style="edgeLabel;html=1;align=center;verticalAlign=middle;resizable=0;points=[];" parent="xr-ssWDF8DEgIkbZszsZ-99" vertex="1" connectable="0">
          <mxGeometry x="0.2905" y="-11" relative="1" as="geometry">
            <mxPoint y="-4" as="offset" />
          </mxGeometry>
        </mxCell>
        <mxCell id="xr-ssWDF8DEgIkbZszsZ-100" value="" style="curved=1;endArrow=classic;html=1;rounded=0;strokeColor=#990000;entryX=1.021;entryY=0.202;entryDx=0;entryDy=0;exitX=0.25;exitY=1;exitDx=0;exitDy=0;entryPerimeter=0;" parent="1" source="xr-ssWDF8DEgIkbZszsZ-63" target="xr-ssWDF8DEgIkbZszsZ-28" edge="1">
          <mxGeometry width="50" height="50" relative="1" as="geometry">
            <mxPoint x="577.1899999999998" y="196.05999999999995" as="sourcePoint" />
            <mxPoint x="495.46000000000004" y="284.50999999999976" as="targetPoint" />
            <Array as="points" />
          </mxGeometry>
        </mxCell>
        <mxCell id="xr-ssWDF8DEgIkbZszsZ-103" value="4" style="edgeLabel;html=1;align=center;verticalAlign=middle;resizable=0;points=[];" parent="xr-ssWDF8DEgIkbZszsZ-100" vertex="1" connectable="0">
          <mxGeometry x="0.235" y="1" relative="1" as="geometry">
            <mxPoint as="offset" />
          </mxGeometry>
        </mxCell>
        <mxCell id="xr-ssWDF8DEgIkbZszsZ-113" value="Зависит от способа сбора данных (RPC/REST/WS/)" style="shape=callout;whiteSpace=wrap;html=1;perimeter=calloutPerimeter;dashed=1;strokeColor=#000000;fillColor=#FFF2CC;" parent="1" vertex="1">
          <mxGeometry x="890" y="-90" width="180" height="100" as="geometry" />
        </mxCell>
        <mxCell id="xr-ssWDF8DEgIkbZszsZ-116" value="" style="curved=1;endArrow=none;html=1;rounded=0;strokeColor=#FFD966;entryX=0.75;entryY=0;entryDx=0;entryDy=0;exitX=0;exitY=0;exitDx=90;exitDy=100;exitPerimeter=0;endFill=0;" parent="1" source="xr-ssWDF8DEgIkbZszsZ-113" target="xr-ssWDF8DEgIkbZszsZ-31" edge="1">
          <mxGeometry width="50" height="50" relative="1" as="geometry">
            <mxPoint x="590" y="450" as="sourcePoint" />
            <mxPoint x="640" y="400" as="targetPoint" />
            <Array as="points">
              <mxPoint x="950" y="30" />
              <mxPoint x="790" />
            </Array>
          </mxGeometry>
        </mxCell>
        <mxCell id="xr-ssWDF8DEgIkbZszsZ-117" value="Зависит от наличия компетенций (VueJS, React, Angular)" style="shape=callout;whiteSpace=wrap;html=1;perimeter=calloutPerimeter;dashed=1;strokeColor=#000000;fillColor=#FFF2CC;" parent="1" vertex="1">
          <mxGeometry x="1050" y="535" width="180" height="100" as="geometry" />
        </mxCell>
        <mxCell id="xr-ssWDF8DEgIkbZszsZ-118" value="" style="curved=1;endArrow=none;html=1;rounded=0;strokeColor=#FFD966;exitX=0;exitY=0;exitDx=90;exitDy=100;exitPerimeter=0;endFill=0;" parent="1" source="xr-ssWDF8DEgIkbZszsZ-117" target="xr-ssWDF8DEgIkbZszsZ-72" edge="1">
          <mxGeometry width="50" height="50" relative="1" as="geometry">
            <mxPoint x="1040" y="660" as="sourcePoint" />
            <mxPoint x="800" y="700" as="targetPoint" />
            <Array as="points">
              <mxPoint x="980" y="680" />
              <mxPoint x="850" y="650" />
            </Array>
          </mxGeometry>
        </mxCell>
        <mxCell id="oFp0ZMOZ12IMJr-6tWFy-1" value="" style="curved=1;endArrow=classic;html=1;rounded=0;strokeColor=#00CCCC;entryX=0;entryY=0.25;entryDx=0;entryDy=0;exitX=0.5;exitY=0;exitDx=0;exitDy=0;" parent="1" source="xr-ssWDF8DEgIkbZszsZ-53" target="xr-ssWDF8DEgIkbZszsZ-36" edge="1">
          <mxGeometry width="50" height="50" relative="1" as="geometry">
            <mxPoint x="360" y="610" as="sourcePoint" />
            <mxPoint x="410" y="560" as="targetPoint" />
            <Array as="points">
              <mxPoint x="470" y="480" />
            </Array>
          </mxGeometry>
        </mxCell>
        <mxCell id="oFp0ZMOZ12IMJr-6tWFy-4" value="А4.1 Оценка решения" style="edgeLabel;html=1;align=center;verticalAlign=middle;resizable=0;points=[];" parent="oFp0ZMOZ12IMJr-6tWFy-1" vertex="1" connectable="0">
          <mxGeometry x="-0.2265" y="-7" relative="1" as="geometry">
            <mxPoint x="-20" y="24" as="offset" />
          </mxGeometry>
        </mxCell>
        <mxCell id="oFp0ZMOZ12IMJr-6tWFy-2" value="" style="curved=1;endArrow=classic;html=1;rounded=0;strokeColor=#00CCCC;entryX=1;entryY=0.5;entryDx=0;entryDy=0;exitX=1;exitY=0.75;exitDx=0;exitDy=0;" parent="1" source="xr-ssWDF8DEgIkbZszsZ-36" target="xr-ssWDF8DEgIkbZszsZ-85" edge="1">
          <mxGeometry width="50" height="50" relative="1" as="geometry">
            <mxPoint x="845" y="584" as="sourcePoint" />
            <mxPoint x="1010" y="367.5" as="targetPoint" />
            <Array as="points">
              <mxPoint x="910" y="460" />
            </Array>
          </mxGeometry>
        </mxCell>
        <mxCell id="oFp0ZMOZ12IMJr-6tWFy-12" value="А4.2" style="edgeLabel;html=1;align=center;verticalAlign=middle;resizable=0;points=[];" parent="oFp0ZMOZ12IMJr-6tWFy-2" vertex="1" connectable="0">
          <mxGeometry x="0.4314" y="13" relative="1" as="geometry">
            <mxPoint as="offset" />
          </mxGeometry>
        </mxCell>
        <mxCell id="oFp0ZMOZ12IMJr-6tWFy-3" value="" style="curved=1;endArrow=classic;html=1;rounded=0;strokeColor=#00CCCC;entryX=0;entryY=0.5;entryDx=0;entryDy=0;exitX=1.001;exitY=0.387;exitDx=0;exitDy=0;exitPerimeter=0;" parent="1" source="xr-ssWDF8DEgIkbZszsZ-85" target="oFp0ZMOZ12IMJr-6tWFy-5" edge="1">
          <mxGeometry width="50" height="50" relative="1" as="geometry">
            <mxPoint x="510" y="446.5" as="sourcePoint" />
            <mxPoint x="675" y="230" as="targetPoint" />
            <Array as="points">
              <mxPoint x="920" y="410" />
            </Array>
          </mxGeometry>
        </mxCell>
        <mxCell id="oFp0ZMOZ12IMJr-6tWFy-13" value="А4.3" style="edgeLabel;html=1;align=center;verticalAlign=middle;resizable=0;points=[];" parent="oFp0ZMOZ12IMJr-6tWFy-3" vertex="1" connectable="0">
          <mxGeometry x="0.226" y="-5" relative="1" as="geometry">
            <mxPoint as="offset" />
          </mxGeometry>
        </mxCell>
        <mxCell id="oFp0ZMOZ12IMJr-6tWFy-10" value="" style="group" parent="1" vertex="1" connectable="0">
          <mxGeometry x="1050" y="360" width="130" height="150" as="geometry" />
        </mxCell>
        <mxCell id="oFp0ZMOZ12IMJr-6tWFy-5" value="БД + балансер &lt;br&gt;(PG + haproxy)" style="rounded=0;whiteSpace=wrap;html=1;dashed=1;strokeColor=#000000;fillColor=default;fillStyle=solid;verticalAlign=top;" parent="oFp0ZMOZ12IMJr-6tWFy-10" vertex="1">
          <mxGeometry width="130" height="150" as="geometry" />
        </mxCell>
        <mxCell id="oFp0ZMOZ12IMJr-6tWFy-9" value="" style="shape=datastore;whiteSpace=wrap;html=1;fillStyle=solid;strokeColor=#000000;fillColor=default;" parent="oFp0ZMOZ12IMJr-6tWFy-10" vertex="1">
          <mxGeometry x="22" y="54" width="40" height="40" as="geometry" />
        </mxCell>
        <mxCell id="oFp0ZMOZ12IMJr-6tWFy-6" value="" style="shape=datastore;whiteSpace=wrap;html=1;fillStyle=solid;strokeColor=#000000;fillColor=default;" parent="oFp0ZMOZ12IMJr-6tWFy-10" vertex="1">
          <mxGeometry x="42" y="74" width="40" height="40" as="geometry" />
        </mxCell>
        <mxCell id="oFp0ZMOZ12IMJr-6tWFy-7" value="" style="shape=datastore;whiteSpace=wrap;html=1;fillStyle=solid;strokeColor=#000000;fillColor=default;" parent="oFp0ZMOZ12IMJr-6tWFy-10" vertex="1">
          <mxGeometry x="62" y="94" width="40" height="40" as="geometry" />
        </mxCell>
        <mxCell id="oFp0ZMOZ12IMJr-6tWFy-14" value="" style="curved=1;endArrow=classic;html=1;rounded=0;strokeColor=#00CCCC;entryX=0.5;entryY=0;entryDx=0;entryDy=0;exitX=0.365;exitY=0.983;exitDx=0;exitDy=0;exitPerimeter=0;" parent="1" source="xr-ssWDF8DEgIkbZszsZ-63" target="oFp0ZMOZ12IMJr-6tWFy-5" edge="1">
          <mxGeometry width="50" height="50" relative="1" as="geometry">
            <mxPoint x="810.2449999999999" y="425.48" as="sourcePoint" />
            <mxPoint x="1060" y="445" as="targetPoint" />
            <Array as="points">
              <mxPoint x="730" y="260" />
              <mxPoint x="960" y="270" />
            </Array>
          </mxGeometry>
        </mxCell>
        <mxCell id="oFp0ZMOZ12IMJr-6tWFy-15" value="А4. Запись данных о прогнозе" style="edgeLabel;html=1;align=center;verticalAlign=middle;resizable=0;points=[];" parent="oFp0ZMOZ12IMJr-6tWFy-14" vertex="1" connectable="0">
          <mxGeometry x="0.226" y="-5" relative="1" as="geometry">
            <mxPoint x="158" y="63" as="offset" />
          </mxGeometry>
        </mxCell>
        <mxCell id="oFp0ZMOZ12IMJr-6tWFy-17" value="" style="curved=1;endArrow=classic;html=1;rounded=0;strokeColor=#00CCCC;entryX=0.5;entryY=0;entryDx=0;entryDy=0;exitX=0.426;exitY=1.067;exitDx=0;exitDy=0;exitPerimeter=0;" parent="1" source="xr-ssWDF8DEgIkbZszsZ-37" target="oFp0ZMOZ12IMJr-6tWFy-5" edge="1">
          <mxGeometry width="50" height="50" relative="1" as="geometry">
            <mxPoint x="741.9749999999999" y="196.82000000000016" as="sourcePoint" />
            <mxPoint x="1125.0000000000002" y="370" as="targetPoint" />
            <Array as="points">
              <mxPoint x="750" y="270" />
              <mxPoint x="970" y="280" />
            </Array>
          </mxGeometry>
        </mxCell>
        <mxCell id="oFp0ZMOZ12IMJr-6tWFy-19" value="" style="curved=1;endArrow=classic;html=1;rounded=0;strokeColor=#00CCCC;entryX=0.69;entryY=1.002;entryDx=0;entryDy=0;exitX=0;exitY=0.75;exitDx=0;exitDy=0;entryPerimeter=0;" parent="1" source="oFp0ZMOZ12IMJr-6tWFy-5" target="xr-ssWDF8DEgIkbZszsZ-28" edge="1">
          <mxGeometry width="50" height="50" relative="1" as="geometry">
            <mxPoint x="880.2450000000001" y="490.48" as="sourcePoint" />
            <mxPoint x="1130.0000000000002" y="510" as="targetPoint" />
            <Array as="points">
              <mxPoint x="940" y="550" />
              <mxPoint x="860" y="810" />
              <mxPoint x="370" y="820" />
            </Array>
          </mxGeometry>
        </mxCell>
        <mxCell id="oFp0ZMOZ12IMJr-6tWFy-22" value="А4.4. pg_amqp" style="edgeLabel;html=1;align=center;verticalAlign=middle;resizable=0;points=[];" parent="oFp0ZMOZ12IMJr-6tWFy-19" vertex="1" connectable="0">
          <mxGeometry x="-0.32" y="-10" relative="1" as="geometry">
            <mxPoint x="-242" y="13" as="offset" />
          </mxGeometry>
        </mxCell>
      </root>
    </mxGraphModel>
  </diagram>
</mxfile>
